<svg xmlns="http://www.w3.org/2000/svg" viewBox="0 0 80 80" xml:space="preserve"><path fill="#FFCC43" d="M34.363 46.874s6.001-.167 7.167-1.167c1.166-1 2 0 2.833-4.5s.5-15.833.5-15.833 17.166-.333 21.833.167 5 4 5 8-.166 14.833-.666 18-4.334 2.833-4.334 2.833l-.666 8.166-10.667-7.833s-13.333.5-17.833-.667-3.167-7.166-3.167-7.166z"/><path fill="#667BBC" d="M15.53 17.04c-7.334.5-6.668-3.5-7.334 6-.666 9.5-1 17.167.5 20.166 1.5 3 3.167 2.834 3.167 2.834l1.167 1v8.167l10.666-9s11 .5 16.167-.5 4.333.334 5-6.333 1-19.334-.5-20.834-11.333-1.5-11.333-1.5h-17.5z"/><path fill="#131731" d="M67.297 23.705H46.278v-2.767a5.73 5.73 0 0 0-5.731-5.731v-.002H12.511a5.733 5.733 0 0 0-5.732 5.733v20.983a5.73 5.73 0 0 0 5.125 5.699v12.083l12.049-12.051h9.577v2.768a5.728 5.728 0 0 0 5.731 5.732h16.594l12.048 12.053V56.121a5.733 5.733 0 0 0 5.127-5.701V29.438a5.737 5.737 0 0 0-5.733-5.733zM22.708 44.653l-7.806 7.806.003-7.806H12.51a2.733 2.733 0 0 1-2.731-2.732V20.938a2.731 2.731 0 0 1 2.731-2.731h28.036a2.734 2.734 0 0 1 2.731 2.731v20.983a2.737 2.737 0 0 1-2.731 2.732H22.708zm47.32 5.767a2.738 2.738 0 0 1-2.731 2.734h-2.395v7.803l-7.806-7.805H39.261a2.732 2.732 0 0 1-2.731-2.732v-2.768h4.018a5.73 5.73 0 0 0 5.731-5.731V26.706h21.019a2.735 2.735 0 0 1 2.731 2.731V50.42z"/></svg>